<?xml version="1.0" encoding="UTF-8"?>
<!-- Created with Inkscape (http://www.inkscape.org/) -->
<svg width="512" height="512" version="1.1" viewBox="0 0 135.47 135.47" xmlns="http://www.w3.org/2000/svg">
 <g stroke="#000">
  <g fill="none">
   <path d="m67.469 41.765c-26.694-24.024-40.945-2.2546-60.992-18.739-0.96853 23.71 5.7426 56.578 13.069 74.144 19.344 19.22 29.683 6.6752 47.923 21.686" stroke-width=".26458px"/>
   <path d="m21.435 55.272c8.1484 0.49846 16.297 2.4014 24.445 4.8168 5.9725 3.3437 8.7118 7.4957 12.283 11.44-2.4582 6.4589-6.7274 11.538-15.895 12.885-11.886-6.785-17.577-17.241-20.832-29.141z" stroke-width=".26458px"/>
   <path transform="scale(.26458)" d="m485.52 87.025c-75.769 62.304-129.63-19.973-230.52 70.826v291.37c68.94-56.733 108.02-9.3207 181.13-81.963 27.689-66.39 53.055-190.62 49.395-280.23z" stroke-width="5"/>
   <path d="m113.5 55.272c-8.1484 0.49846-16.297 2.4014-24.445 4.8168-5.9725 3.3437-8.7118 7.4957-12.283 11.44 2.4582 6.4589 6.7274 11.538 15.895 12.885 11.886-6.785 17.577-17.241 20.832-29.141z" stroke-width=".26458px"/>
  </g>
  <path d="m65.147 117.94c-5.6832-4.1199-9.6714-5.6095-19.429-7.2569-3.2225-0.54403-6.8573-1.2662-8.0774-1.6048-5.7065-1.5839-10.996-4.7099-16.251-9.6049-1.4866-1.3848-1.6835-1.6912-2.5657-3.9924-4.3588-11.371-8.3965-28.467-10.496-44.441-1.0491-7.984-1.3869-12.445-1.5197-20.072l-0.12865-7.3898 1.8054 1.3117c3.1735 2.3057 6.7091 3.8536 10.781 4.7201 2.1724 0.46224 5.5812 0.53689 17.34 0.3797 4.8668-0.06506 6.0612-5e-3 8.5253 0.42905 5.2478 0.92428 10.317 3.0175 15.092 6.2322 2.329 1.5679 5.773 4.2862 6.5485 5.1686 0.39916 0.45419 0.41888 2.5836 0.36126 38.998l-0.06096 38.518zm-19.035-33.388c5.0721-1.5457 8.755-4.795 11.235-9.9126l1.2101-2.4966-2.6836-3.1127c-3.1218-3.621-5.6763-6.0283-8.0905-7.6242-1.4794-0.97801-2.302-1.2946-5.9056-2.2728-7.1349-1.9369-13.322-3.1229-18.461-3.5387-1.5315-0.12391-2.2228-0.09852-2.2228 0.08164 0 0.50414 1.5076 5.1435 2.4563 7.5586 3.5407 9.0142 8.7796 15.753 16.02 20.606 2.451 1.6429 2.4654 1.6486 3.6126 1.4361 0.63345-0.11736 1.9066-0.44341 2.8291-0.72456z" fill-opacity=".99608" stroke-linejoin="round" stroke-width="1.3313" style="paint-order:stroke fill markers"/>
  <path transform="scale(.26458)" d="m339.98 315.9c-20.905-5.4991-35.753-18.037-45.538-38.455-2.6256-5.4788-2.9416-6.7652-1.9541-7.9566 16.194-19.537 26.398-29.576 37.479-36.871 6.075-3.9996 9.2435-5.3338 19.115-8.0493 27.809-7.6494 62.937-14.302 75.524-14.302h3.0655l-2.2981 7.5096c-10.275 33.577-28.115 62.919-49.653 81.667-10.054 8.7515-24.214 18.258-27.094 18.188-1.2516-0.0301-5.1429-0.809-8.6474-1.7308z" fill-opacity=".99608" stroke-linejoin="round" stroke-width="5" style="paint-order:stroke fill markers"/>
 </g>
</svg>
